<svg width="206" height="36" viewBox="0 0 206 36" fill="none" xmlns="http://www.w3.org/2000/svg">
<rect x="14" y="28" width="10" height="8" fill="#D3D7D7"/>
<rect x="26" y="28" width="10" height="8" fill="#D3D7D7"/>
<rect x="38" y="28" width="10" height="8" fill="#D3D7D7"/>
<rect x="50" y="28" width="10" height="8" fill="#D3D7D7"/>
<rect x="62" y="28" width="10" height="8" fill="#D3D7D7"/>
<rect x="74" y="28" width="10" height="8" fill="#D3D7D7"/>
<rect x="86" y="28" width="10" height="8" fill="#D3D7D7"/>
<rect x="98" y="28" width="10" height="8" fill="#D3D7D7"/>
<rect x="110" y="28" width="10" height="8" fill="#D3D7D7"/>
<rect x="122" y="28" width="10" height="8" fill="#D3D7D7"/>
<rect x="134" y="28" width="10" height="8" fill="#D3D7D7"/>
<rect x="146" y="28" width="10" height="8" fill="#D3D7D7"/>
<rect x="158" y="28" width="10" height="8" fill="#D3D7D7"/>
<rect x="170" y="28" width="10" height="8" fill="#D3D7D7"/>
<rect x="182" y="28" width="10" height="8" fill="#D3D7D7"/>
<path d="M0 32C0 29.7909 1.79086 28 4 28H12V36H4C1.79086 36 0 34.2091 0 32Z" fill="#00B686"/>
<path d="M206 32C206 29.7909 204.209 28 202 28H194V36H202C204.209 36 206 34.2091 206 32Z" fill="#D3D7D7"/>
<path d="M186.541 20.216C189.529 20.216 191.509 18.758 191.509 16.652C191.509 14.924 189.961 13.934 188.683 13.808C190.105 13.574 191.311 12.512 191.311 11.108C191.311 9.128 189.601 7.814 186.541 7.814C184.327 7.814 182.743 8.624 181.735 9.758L183.229 11.702C184.075 10.946 185.119 10.55 186.217 10.55C187.369 10.55 188.233 10.892 188.233 11.648C188.233 12.278 187.531 12.584 186.289 12.584C185.839 12.584 184.903 12.584 184.669 12.566V15.32C184.849 15.302 185.767 15.302 186.289 15.302C187.927 15.302 188.431 15.626 188.431 16.31C188.431 16.976 187.747 17.48 186.415 17.48C185.371 17.48 184.003 17.066 183.139 16.22L181.573 18.326C182.509 19.406 184.237 20.216 186.541 20.216ZM195.641 13.826C197.567 13.826 198.809 12.512 198.809 10.838C198.809 9.146 197.567 7.814 195.641 7.814C193.751 7.814 192.527 9.146 192.527 10.838C192.527 12.512 193.751 13.826 195.641 13.826ZM196.001 20L203.687 7.994H202.121L194.453 20H196.001ZM202.427 20.216C204.335 20.216 205.577 18.902 205.577 17.228C205.577 15.536 204.335 14.204 202.427 14.204C200.537 14.204 199.313 15.536 199.313 17.228C199.313 18.902 200.537 20.216 202.427 20.216ZM195.641 12.17C194.957 12.17 194.435 11.702 194.435 10.838C194.435 9.938 194.957 9.47 195.641 9.47C196.343 9.47 196.883 9.938 196.883 10.838C196.883 11.702 196.343 12.17 195.641 12.17ZM202.427 18.56C201.725 18.56 201.221 18.11 201.221 17.228C201.221 16.328 201.725 15.86 202.427 15.86C203.129 15.86 203.669 16.328 203.669 17.228C203.669 18.11 203.129 18.56 202.427 18.56Z" fill="#00B686"/>
<path d="M11.696 19V8.328H9.792L6.464 16.36L3.152 8.328H1.248V19H2.576V10.216L6.192 19H6.736L10.368 10.216V19H11.696ZM20.5535 19V11.272H19.3535V16.952C18.9055 17.576 18.0095 18.12 17.0655 18.12C16.0255 18.12 15.3375 17.72 15.3375 16.36V11.272H14.1375V16.728C14.1375 18.408 14.9855 19.192 16.6015 19.192C17.7535 19.192 18.7615 18.584 19.3535 17.912V19H20.5535ZM24.902 19.192C25.606 19.192 26.038 18.984 26.342 18.696L25.99 17.8C25.83 17.976 25.51 18.12 25.174 18.12C24.646 18.12 24.39 17.704 24.39 17.128V12.328H25.958V11.272H24.39V9.16H23.19V11.272H21.91V12.328H23.19V17.384C23.19 18.536 23.766 19.192 24.902 19.192ZM34.0691 19V11.272H32.8691V16.952C32.4211 17.576 31.5251 18.12 30.5811 18.12C29.5411 18.12 28.8531 17.72 28.8531 16.36V11.272H27.6531V16.728C27.6531 18.408 28.5011 19.192 30.1171 19.192C31.2691 19.192 32.2771 18.584 32.8691 17.912V19H34.0691ZM42.4976 19V13.688C42.4976 11.816 41.1376 11.08 39.5056 11.08C38.2416 11.08 37.2496 11.496 36.4176 12.36L36.9776 13.192C37.6656 12.456 38.4176 12.12 39.3456 12.12C40.4656 12.12 41.2976 12.712 41.2976 13.752V15.144C40.6736 14.424 39.7936 14.088 38.7376 14.088C37.4256 14.088 36.0336 14.904 36.0336 16.632C36.0336 18.312 37.4256 19.192 38.7376 19.192C39.7776 19.192 40.6576 18.824 41.2976 18.12V19H42.4976ZM39.1696 18.328C38.0496 18.328 37.2656 17.624 37.2656 16.648C37.2656 15.656 38.0496 14.952 39.1696 14.952C40.0176 14.952 40.8336 15.272 41.2976 15.912V17.368C40.8336 18.008 40.0176 18.328 39.1696 18.328ZM46.1031 19V8.328H44.9031V19H46.1031ZM61.8059 19L57.5019 8.328H55.8539L51.5659 19H53.0859L54.0299 16.632H59.3419L60.2859 19H61.8059ZM58.9419 15.448H54.4139L56.6859 9.704L58.9419 15.448ZM66.5611 19.192C67.9691 19.192 68.8011 18.616 69.3931 17.848L68.5931 17.112C68.0811 17.8 67.4251 18.12 66.6251 18.12C64.9771 18.12 63.9531 16.84 63.9531 15.128C63.9531 13.416 64.9771 12.152 66.6251 12.152C67.4251 12.152 68.0811 12.456 68.5931 13.16L69.3931 12.424C68.8011 11.656 67.9691 11.08 66.5611 11.08C64.2571 11.08 62.7051 12.84 62.7051 15.128C62.7051 17.432 64.2571 19.192 66.5611 19.192ZM73.027 19.192C73.731 19.192 74.163 18.984 74.467 18.696L74.115 17.8C73.955 17.976 73.635 18.12 73.299 18.12C72.771 18.12 72.515 17.704 72.515 17.128V12.328H74.083V11.272H72.515V9.16H71.315V11.272H70.035V12.328H71.315V17.384C71.315 18.536 71.891 19.192 73.027 19.192ZM76.3701 10.168C76.8181 10.168 77.1861 9.816 77.1861 9.368C77.1861 8.92 76.8181 8.552 76.3701 8.552C75.9381 8.552 75.5701 8.92 75.5701 9.368C75.5701 9.816 75.9381 10.168 76.3701 10.168ZM76.9781 19V11.272H75.7781V19H76.9781ZM82.7479 19.192C85.0999 19.192 86.5719 17.368 86.5719 15.128C86.5719 12.888 85.0999 11.08 82.7479 11.08C80.3959 11.08 78.9239 12.888 78.9239 15.128C78.9239 17.368 80.3959 19.192 82.7479 19.192ZM82.7479 18.12C81.0999 18.12 80.1719 16.712 80.1719 15.128C80.1719 13.56 81.0999 12.152 82.7479 12.152C84.3959 12.152 85.3079 13.56 85.3079 15.128C85.3079 16.712 84.3959 18.12 82.7479 18.12ZM94.9441 19V13.576C94.9441 11.896 94.0961 11.08 92.4801 11.08C91.3281 11.08 90.2721 11.752 89.7281 12.392V11.272H88.5281V19H89.7281V13.352C90.1761 12.728 91.0721 12.152 92.0161 12.152C93.0561 12.152 93.7441 12.584 93.7441 13.944V19H94.9441ZM102.842 19V14.76H105.802C107.914 14.76 109.146 13.288 109.146 11.544C109.146 9.8 107.946 8.328 105.802 8.328H101.514V19H102.842ZM105.642 13.576H102.842V9.512H105.642C106.906 9.512 107.77 10.344 107.77 11.544C107.77 12.744 106.906 13.576 105.642 13.576ZM112.056 19V8.328H110.856V19H112.056ZM120.482 19V13.688C120.482 11.816 119.122 11.08 117.49 11.08C116.226 11.08 115.234 11.496 114.402 12.36L114.962 13.192C115.65 12.456 116.402 12.12 117.33 12.12C118.45 12.12 119.282 12.712 119.282 13.752V15.144C118.658 14.424 117.778 14.088 116.722 14.088C115.41 14.088 114.018 14.904 114.018 16.632C114.018 18.312 115.41 19.192 116.722 19.192C117.762 19.192 118.642 18.824 119.282 18.12V19H120.482ZM117.154 18.328C116.034 18.328 115.25 17.624 115.25 16.648C115.25 15.656 116.034 14.952 117.154 14.952C118.002 14.952 118.818 15.272 119.282 15.912V17.368C118.818 18.008 118.002 18.328 117.154 18.328ZM129.304 19V13.576C129.304 11.896 128.456 11.08 126.84 11.08C125.688 11.08 124.632 11.752 124.088 12.392V11.272H122.888V19H124.088V13.352C124.536 12.728 125.432 12.152 126.376 12.152C127.416 12.152 128.104 12.584 128.104 13.944V19H129.304Z" fill="#7B8786"/>
</svg>
