<svg width="134" height="36" viewBox="0 0 134 36" fill="none" xmlns="http://www.w3.org/2000/svg">
<g filter="url(#filter0_b_1_78)">
<path d="M1 6C1 3.23858 3.23858 1 6 1H128C130.761 1 133 3.23858 133 6V30C133 32.7614 130.761 35 128 35H6C3.23858 35 1 32.7614 1 30V6Z" stroke="#D3D7D7"/>
</g>
<path d="M17.0065 11.2705L17.1083 11.2637C17.488 11.2637 17.8018 11.5458 17.8514 11.9119L17.8583 12.0137L17.8574 24.7097L21.0768 21.4885C21.343 21.2222 21.7597 21.1978 22.0534 21.4155L22.1375 21.4881C22.4039 21.7542 22.4283 22.1709 22.2105 22.4646L22.138 22.5488L17.6417 27.0488C17.3756 27.3151 16.9589 27.3395 16.6652 27.1218L16.5811 27.0492L12.0773 22.5492C11.7843 22.2564 11.7841 21.7816 12.0769 21.4885C12.343 21.2222 12.7597 21.1978 13.0534 21.4155L13.1375 21.4881L16.3574 24.7057L16.3583 12.0137C16.3583 11.634 16.6404 11.3202 17.0065 11.2705Z" fill="#657372"/>
<path d="M41.3574 10.7637V27.7637" stroke="#D3D7D7"/>
<path d="M55.5771 9.48334C55.3108 9.74961 55.2866 10.1663 55.5045 10.4599L55.5771 10.544L59.6117 14.5786C57.6897 15.928 56.2532 17.9436 55.6563 20.3281C55.5557 20.7299 55.7999 21.1372 56.2017 21.2378C56.6036 21.3383 57.0108 21.0942 57.1114 20.6923C57.6409 18.5772 58.9485 16.8031 60.6916 15.6582L62.5012 17.468C61.7937 18.1895 61.3574 19.178 61.3574 20.2683C61.3574 22.4775 63.1483 24.2683 65.3574 24.2683C66.4478 24.2683 67.4362 23.832 68.1578 23.1245L74.0771 29.044C74.37 29.3369 74.8448 29.3369 75.1377 29.044C75.404 28.7778 75.4282 28.3611 75.2103 28.0675L75.1377 27.9834L69.0242 21.8692L69.0254 21.8677L67.8253 20.6698L64.9554 17.8005L64.9574 17.7997L62.0762 14.9215L62.0774 14.9197L60.9441 13.7892L56.6378 9.48334C56.3449 9.19045 55.87 9.19045 55.5771 9.48334ZM63.5615 18.5292L67.0966 22.0643C66.6466 22.5001 66.0333 22.7683 65.3574 22.7683C63.9767 22.7683 62.8574 21.649 62.8574 20.2683C62.8574 19.5924 63.1257 18.9791 63.5615 18.5292ZM65.3574 12.7637C64.3571 12.7637 63.3865 12.9117 62.4685 13.1887L63.7055 14.4249C64.2413 14.319 64.7938 14.2637 65.3574 14.2637C69.2805 14.2637 72.6673 16.9439 73.6045 20.6969C73.7049 21.0987 74.112 21.3431 74.5139 21.2428C74.9158 21.1424 75.1602 20.7353 75.0598 20.3334C73.9568 15.9164 69.9729 12.7637 65.3574 12.7637ZM65.5521 16.273L69.3534 20.0737C69.2516 18.0168 67.6046 16.3713 65.5521 16.273Z" fill="#657372"/>
<path d="M89.3574 10.7637V27.7637" stroke="#D3D7D7"/>
<path d="M111.357 12.2637H115.357C115.357 11.1591 114.462 10.2637 113.357 10.2637C112.253 10.2637 111.357 11.1591 111.357 12.2637ZM109.857 12.2637C109.857 10.3307 111.424 8.76367 113.357 8.76367C115.29 8.76367 116.857 10.3307 116.857 12.2637H122.607C123.022 12.2637 123.357 12.5995 123.357 13.0137C123.357 13.4279 123.022 13.7637 122.607 13.7637H121.288L120.116 25.8749C119.93 27.7971 118.315 29.2637 116.384 29.2637H110.331C108.4 29.2637 106.785 27.7971 106.599 25.8749L105.427 13.7637H104.107C103.693 13.7637 103.357 13.4279 103.357 13.0137C103.357 12.5995 103.693 12.2637 104.107 12.2637H109.857ZM111.857 17.0137C111.857 16.5995 111.522 16.2637 111.107 16.2637C110.693 16.2637 110.357 16.5995 110.357 17.0137V24.5137C110.357 24.9279 110.693 25.2637 111.107 25.2637C111.522 25.2637 111.857 24.9279 111.857 24.5137V17.0137ZM115.607 16.2637C116.022 16.2637 116.357 16.5995 116.357 17.0137V24.5137C116.357 24.9279 116.022 25.2637 115.607 25.2637C115.193 25.2637 114.857 24.9279 114.857 24.5137V17.0137C114.857 16.5995 115.193 16.2637 115.607 16.2637ZM108.092 25.7304C108.203 26.8837 109.172 27.7637 110.331 27.7637H116.384C117.542 27.7637 118.512 26.8837 118.623 25.7304L119.781 13.7637H106.934L108.092 25.7304Z" fill="#657372"/>
<defs>
<filter id="filter0_b_1_78" x="-9.5" y="-9.5" width="153" height="55" filterUnits="userSpaceOnUse" color-interpolation-filters="sRGB">
<feFlood flood-opacity="0" result="BackgroundImageFix"/>
<feGaussianBlur in="BackgroundImageFix" stdDeviation="5"/>
<feComposite in2="SourceAlpha" operator="in" result="effect1_backgroundBlur_1_78"/>
<feBlend mode="normal" in="SourceGraphic" in2="effect1_backgroundBlur_1_78" result="shape"/>
</filter>
</defs>
</svg>
