<svg width="92" height="34" viewBox="0 0 92 34" fill="none" xmlns="http://www.w3.org/2000/svg">
<path d="M15 6.5C21.9035 6.5 27.5 12.0964 27.5 19C27.5 25.9035 21.9035 31.5 15 31.5C12.9771 31.5 11.0223 31.0183 9.26608 30.11L4.4838 31.4441C3.65265 31.6762 2.79073 31.1906 2.55864 30.3595C2.48183 30.0845 2.48186 29.7936 2.55869 29.5189L3.89326 24.7402C2.98296 22.9825 2.5 21.0254 2.5 19C2.5 12.0964 8.09644 6.5 15 6.5ZM15 8.375C9.13198 8.375 4.375 13.132 4.375 19C4.375 20.837 4.84096 22.6043 5.71629 24.1719L5.9046 24.509L4.5137 29.4893L9.49694 28.099L9.83386 28.2869C11.4001 29.1601 13.1652 29.625 15 29.625C20.868 29.625 25.625 24.868 25.625 19C25.625 13.132 20.868 8.375 15 8.375ZM10.9375 20.25H16.5604C17.0781 20.25 17.4979 20.6698 17.4979 21.1875C17.4979 21.6621 17.1451 22.0544 16.6875 22.1165L16.5604 22.125H10.9375C10.4197 22.125 10 21.7052 10 21.1875C10 20.7129 10.3527 20.3206 10.8103 20.2585L10.9375 20.25H16.5604H10.9375ZM10.9375 15.875H19.0681C19.5859 15.875 20.0056 16.2947 20.0056 16.8125C20.0056 17.2871 19.6529 17.6794 19.1954 17.7415L19.0681 17.75H10.9375C10.4197 17.75 10 17.3302 10 16.8125C10 16.3379 10.3527 15.9456 10.8103 15.8836L10.9375 15.875H19.0681H10.9375Z" fill="#657372"/>
<path d="M46 6.25V31.75" stroke="#D3D7D7"/>
<path d="M83.25 7.12305C85.6675 7.12305 87.6273 9.08278 87.6273 11.5003C87.6273 13.9177 85.6675 15.8775 83.25 15.8775C81.9625 15.8775 80.8049 15.3216 80.004 14.4368L74.3057 17.6924C74.4348 18.1054 74.5044 18.5447 74.5044 19.0002C74.5044 19.4559 74.4348 19.8951 74.3057 20.3081L80.0029 23.565C80.8038 22.6794 81.9619 22.123 83.25 22.123C85.6675 22.123 87.6273 24.0827 87.6273 26.5002C87.6273 28.9177 85.6675 30.8775 83.25 30.8775C80.8325 30.8775 78.8728 28.9177 78.8728 26.5002C78.8728 26.0447 78.9424 25.6054 79.0715 25.1924L73.3744 21.9356C72.5734 22.8211 71.4153 23.3775 70.1272 23.3775C67.7098 23.3775 65.75 21.4177 65.75 19.0002C65.75 16.5827 67.7098 14.623 70.1272 14.623C71.4147 14.623 72.5723 15.1789 73.3732 16.0637L79.0715 12.8081C78.9424 12.3951 78.8728 11.9558 78.8728 11.5003C78.8728 9.08278 80.8325 7.12305 83.25 7.12305ZM83.25 23.998C81.8681 23.998 80.7478 25.1184 80.7478 26.5002C80.7478 27.8822 81.8681 29.0025 83.25 29.0025C84.6319 29.0025 85.7523 27.8822 85.7523 26.5002C85.7523 25.1184 84.6319 23.998 83.25 23.998ZM70.1272 16.498C68.7453 16.498 67.625 17.6184 67.625 19.0002C67.625 20.3822 68.7453 21.5025 70.1272 21.5025C71.5091 21.5025 72.6294 20.3822 72.6294 19.0002C72.6294 17.6184 71.5091 16.498 70.1272 16.498ZM83.25 8.99805C81.8681 8.99805 80.7478 10.1183 80.7478 11.5003C80.7478 12.8822 81.8681 14.0025 83.25 14.0025C84.6319 14.0025 85.7523 12.8822 85.7523 11.5003C85.7523 10.1183 84.6319 8.99805 83.25 8.99805Z" fill="#657372"/>
<circle cx="27" cy="10" r="10" fill="#00B686"/>
<path d="M26.9979 13.1085C28.2579 13.1085 29.4099 12.5595 29.4099 11.4435C29.4099 10.7145 28.8339 10.1565 28.1139 9.90455C28.7799 9.67055 29.3109 9.23855 29.3109 8.49155C29.3109 7.36655 28.1049 6.90755 26.9979 6.90755C25.8819 6.90755 24.6849 7.36655 24.6849 8.49155C24.6849 9.23855 25.2069 9.67055 25.8729 9.90455C25.1529 10.1565 24.5859 10.7145 24.5859 11.4435C24.5859 12.5685 25.7379 13.1085 26.9979 13.1085ZM26.9979 9.40055C26.6289 9.34655 25.9809 9.13955 25.9809 8.68955C25.9809 8.25755 26.4039 8.00555 26.9979 8.00555C27.5829 8.00555 28.0059 8.25755 28.0059 8.68955C28.0059 9.13955 27.3669 9.34655 26.9979 9.40055ZM26.9979 12.0105C26.3679 12.0105 25.8819 11.7225 25.8819 11.2815C25.8819 10.7775 26.6199 10.5345 26.9979 10.4805C27.3669 10.5345 28.1139 10.7775 28.1139 11.2815C28.1139 11.7225 27.6099 12.0105 26.9979 12.0105Z" fill="white"/>
</svg>
