<svg width="33" height="32" viewBox="0 0 33 32" fill="none" xmlns="http://www.w3.org/2000/svg">
<path d="M15.6195 5.75C20.4113 5.75 24.3238 9.43525 24.4884 14.112L24.4933 14.4015V19.1275L26.1261 22.7681C26.2079 22.9502 26.25 23.1469 26.25 23.3458C26.25 24.142 25.5879 24.7877 24.771 24.7877L19.1691 24.7894C19.1691 26.7006 17.5799 28.25 15.6195 28.25C13.7292 28.25 12.184 26.8092 12.076 24.9927L12.0695 24.7868L6.47935 24.7877C6.27663 24.7877 6.07607 24.747 5.89012 24.6683C5.14093 24.3509 4.7974 23.5017 5.12282 22.7713L6.74572 19.1286V14.4014C6.74643 9.60869 10.7118 5.75 15.6195 5.75ZM17.3938 24.7868L13.8448 24.7894C13.8448 25.745 14.6394 26.5197 15.6195 26.5197C16.542 26.5197 17.3002 25.8335 17.3861 24.956L17.3938 24.7868ZM15.6195 7.4803C11.6912 7.4803 8.52105 10.5651 8.52048 14.4015V19.4881L6.93032 23.0574H24.3188L22.7186 19.4893L22.7187 14.4163L22.7143 14.1565C22.5829 10.4266 19.4549 7.4803 15.6195 7.4803Z" fill="#657372"/>
<circle cx="24.5" cy="8.5" r="8.5" fill="#F97777"/>
<path d="M24.0059 11.4004V10.2754H21.5579C23.1149 9.14139 23.9609 8.25039 23.9609 7.22439C23.9609 6.02739 22.9439 5.30739 21.6659 5.30739C20.8289 5.30739 19.9379 5.61339 19.3529 6.28839L20.0819 7.13439C20.4869 6.71139 21.0089 6.44139 21.6929 6.44139C22.1879 6.44139 22.6649 6.70239 22.6649 7.22439C22.6649 7.96239 21.9449 8.58339 19.4879 10.4014V11.4004H24.0059ZM27.2154 11.5084C28.6644 11.5084 29.6184 10.7074 29.6184 9.42939C29.6184 8.21439 28.7094 7.48539 27.6924 7.48539C27.1434 7.48539 26.6574 7.70139 26.3694 7.98939V6.52239H29.2134V5.39739H25.0914V8.84439L25.9824 9.07839C26.3424 8.73639 26.7474 8.59239 27.2424 8.59239C27.9264 8.59239 28.3224 8.95239 28.3224 9.48339C28.3224 9.96939 27.9174 10.3744 27.2064 10.3744C26.5764 10.3744 26.0184 10.1404 25.6134 9.71739L24.9024 10.6084C25.4154 11.1664 26.1714 11.5084 27.2154 11.5084Z" fill="white"/>
</svg>
