<svg width="30" height="30" viewBox="0 0 30 30" fill="none" xmlns="http://www.w3.org/2000/svg">
<path d="M12.502 3.4375C17.5071 3.4375 21.5645 7.49493 21.5645 12.5C21.5645 14.6649 20.8053 16.6524 19.5388 18.211L25.6648 24.3371C26.031 24.7032 26.031 25.2967 25.6648 25.6629C25.3321 25.9958 24.8112 26.026 24.4442 25.7536L24.3391 25.6629L18.213 19.5369C16.6543 20.8034 14.6668 21.5625 12.502 21.5625C7.49688 21.5625 3.43945 17.5051 3.43945 12.5C3.43945 7.49493 7.49688 3.4375 12.502 3.4375ZM12.502 5.3125C8.5324 5.3125 5.31445 8.53045 5.31445 12.5C5.31445 16.4695 8.5324 19.6875 12.502 19.6875C16.4715 19.6875 19.6895 16.4695 19.6895 12.5C19.6895 8.53045 16.4715 5.3125 12.502 5.3125Z" fill="#657372"/>
</svg>
